<?xml version="1.0" encoding="utf-8"?><!DOCTYPE svg  PUBLIC '-//W3C//DTD SVG 1.1//EN'  'http://www.w3.org/Graphics/SVG/1.1/DTD/svg11.dtd'><svg enable_background="new 0 0 850 848" height="848px" pretty_print="False" style="stroke-linejoin: round; stroke:#000; fill: none;" version="1.1" viewBox="0 0 850 848" width="850px" xmlns="http://www.w3.org/2000/svg" xmlns:xlink="http://www.w3.org/1999/xlink"><defs><style type="text/css"><![CDATA[path { fill-rule: evenodd; }]]></style></defs><metadata><views><view h="848.675050934" padding="0" w="850"><proj flip="auto" id="robinson" lon0="11.5660240229"/><bbox h="33.67" w="33.76" x="133.82" y="-884.18"/></view></views></metadata><g class="" id="roads"><path d="M563.949371,846.675051L558.060632,773.512633L563.644666,770.606530L528.829930,694.040423L527.843663,640.290805L537.708687,609.062670L611.165937,578.798088L628.729021,583.564354L685.691250,568.087772L690.882056,556.220414L808.474182,561.292627L843.310953,524.532377L825.677525,476.359270L796.557216,471.357679L659.336750,425.681111L634.290159,426.771726L586.819981,405.129247L544.781414,377.641112L541.260947,274.562858L546.239558,222.379789L505.372745,220.335954L490.883749,203.730606L496.712310,167.972613L516.072344,166.735715L502.544738,132.219552L509.115978,74.080379L403.203252,60.815187L384.616881,42.674715L338.725498,25.722556L317.823958,3.075537L290.952177,11.763391L275.065060,40.003723L223.595441,61.953315L114.799907,51.800903L84.961559,73.206419L44.700580,74.137114L54.958476,113.640900L109.020254,181.442077L107.291953,233.429369L146.760828,263.439091L136.132215,302.063871L152.520748,315.603209L152.373655,364.641678L93.209634,398.168682L40.291469,397.445541L0.501371,414.763780L25.167274,433.134188L25.655378,469.528709L10.829361,506.692241L44.067066,540.914900L42.890170,551.783398L91.874261,564.173897L131.239316,614.184246L152.817396,654.920489L171.586724,650.258735L221.676578,659.063188L257.937915,657.500212L304.839516,707.239500L283.398125,734.383158L313.194966,753.945020L328.034789,779.576841L370.108896,778.069578L410.044193,806.728482L444.422013,802.353771L489.876298,825.079561L494.268104,835.586955L561.627331,839.196932L563.949371,846.675051Z "/></g></svg>