<?xml version="1.0" encoding="utf-8"?><!DOCTYPE svg  PUBLIC '-//W3C//DTD SVG 1.1//EN'  'http://www.w3.org/Graphics/SVG/1.1/DTD/svg11.dtd'><svg enable_background="new 0 0 850 1092" height="1092px" pretty_print="False" style="stroke-linejoin: round; stroke:#000; fill: none;" version="1.1" viewBox="0 0 850 1092" width="850px" xmlns="http://www.w3.org/2000/svg" xmlns:xlink="http://www.w3.org/1999/xlink"><defs><style type="text/css"><![CDATA[path { fill-rule: evenodd; }]]></style></defs><metadata><views><view h="1092.66020532" padding="0" w="850"><proj id="laea" lat0="51.992051" lon0="11.5660240229"/><bbox h="25.82" w="20.1" x="992.38" y="987.08"/></view></views></metadata><g class="" id="roads"><path d="M541.736266,1090.660205L547.668806,1071.584334L565.330299,1048.766203L563.413980,1039.181225L549.748438,1039.070637L561.566722,1012.367447L542.078421,1004.551230L540.160067,996.873365L546.034186,993.090908L532.390856,987.233951L536.389714,966.190822L524.675198,966.094595L528.635367,954.627700L530.692344,931.640650L522.915716,925.825531L522.979424,912.406006L517.142042,908.522145L515.256603,895.079464L521.113227,895.130713L527.045909,879.834713L523.291362,852.934855L529.210119,841.464916L517.531451,835.604377L517.588973,825.999484L523.535161,810.683675L531.348060,808.826364L529.536006,785.748266L547.183236,770.527590L560.835400,770.644308L578.484058,755.411841L603.825139,757.551712L605.841511,746.025144L623.359408,751.940041L642.900341,744.398240L656.601235,734.878496L681.960373,731.204580L687.885100,715.840078L699.576443,715.909509L713.174929,723.692275L721.015552,714.106327L744.405208,710.366585L763.822865,723.939513L781.360075,720.152232L779.447384,712.435136L795.022998,712.487232L798.860817,725.983911L839.825547,699.090117L841.810762,685.595230L845.693008,689.456665L847.680245,675.962164L841.881268,664.387707L841.919918,652.819002L828.428106,616.162993L836.216850,610.386801L830.422728,598.804702L814.855752,606.496343L799.313029,604.538641L801.309624,589.113440L777.985683,589.047016L772.191892,579.391314L774.165374,571.682358L760.566424,569.708796L760.542670,575.491673L739.164969,573.485420L737.296939,556.115930L727.560098,559.932154L690.715094,538.537329L682.938694,538.497182L663.441034,548.030756L638.138549,549.793233L638.172991,544.009331L620.733085,532.320179L618.816934,526.524756L609.056218,532.236209L566.443009,501.060524L566.478140,495.278530L550.964582,487.436904L541.365153,468.069715L535.688723,444.877495L539.552917,448.767975L547.461840,429.535458L555.288960,421.876095L543.688075,412.139522L543.778938,398.628557L559.555156,364.001795L553.793301,354.304322L559.731795,336.968685L555.950477,321.490154L567.783095,292.599602L561.998612,286.762655L548.398463,288.591137L536.886894,269.178279L534.865268,280.757929L521.251082,284.507595L515.468185,278.664848L521.388059,265.182242L507.775094,268.935991L507.817042,263.143289L517.671683,241.961143L515.912555,216.812161L535.315837,215.039532L535.530218,184.095713L531.654911,184.063663L527.872149,170.494784L523.996014,170.461471L531.841659,156.984980L526.114582,145.325304L532.016893,131.826828L537.852792,127.997507L534.209384,95.061253L524.572137,89.167687L499.325975,98.648166L499.473666,79.278015L495.542776,86.994711L485.860985,86.898335L482.030064,81.059778L462.662549,80.873935L462.632740,84.748075L429.742100,78.602424L410.422486,70.645591L404.654815,64.765629L412.489582,55.164330L406.769818,43.468182L393.198881,43.312794L389.400784,33.574487L377.816098,27.621364L368.068475,33.319385L360.437422,17.708811L346.834281,19.473214L342.983943,15.544833L348.902921,3.981268L345.053914,0.050120L321.625059,15.264475L321.558968,23.020489L306.028445,20.867739L300.009195,44.065083L303.831783,51.873542L274.491398,72.799462L266.710858,72.688018L245.189529,85.953700L219.868684,83.622683L194.587111,69.610661L182.783950,75.223173L175.021853,65.346652L143.694548,66.474349L137.641791,83.793520L121.996636,94.688308L110.375845,97.671231L72.228913,94.751374L68.215272,126.801087L77.327021,147.979940L78.906865,164.662965L90.392086,163.268894L90.194082,173.482522L105.114014,192.983626L104.999369,199.055475L119.857913,224.562731L136.043351,216.650535L127.847267,234.237145L123.843204,234.224327L135.772926,272.835610L145.674945,282.558666L129.829086,282.400568L122.070001,301.429795L129.931008,315.069079L149.520015,334.625109L159.271583,340.515376L161.167083,359.805180L141.745274,363.349293L139.819502,367.145213L155.306658,380.895933L145.658060,390.320906L170.672169,421.526008L147.656518,438.362946L147.663901,447.962759L161.012791,452.088652L157.187056,471.201822L124.675397,491.596718L134.471049,495.678055L126.702074,508.936924L104.958633,508.410698L95.073383,513.937441L41.858007,512.425394L28.054555,517.776893L31.962540,521.746606L20.086879,530.992812L10.267869,528.747033L0.389315,534.228409L23.752546,558.228240L15.749814,569.742541L15.675572,577.592512L25.464251,581.642127L21.309762,605.110507L3.596830,617.058407L7.470543,620.957508L3.331173,652.752418L14.953297,662.377972L34.190571,697.218397L32.131763,711.183383L43.622826,725.828053L80.752632,727.678569L82.562182,737.534276L88.459533,731.702957L119.214225,751.436813L107.568285,753.346920L101.683693,759.183659L122.715142,782.616585L116.792482,792.351773L127.935529,837.100312L135.602257,844.873606L147.221032,844.862141L162.771169,839.019502L180.123600,846.776810L205.268737,850.643251L209.183325,846.762180L230.503282,852.614108L242.233105,848.788343L255.723596,862.397185L265.406721,868.241599L267.239131,879.851051L276.848124,893.422808L294.273749,907.027685L272.488037,937.899024L264.713754,935.957603L256.821413,947.590802L284.038409,953.389886L283.964325,961.132877L291.751608,963.072696L291.657277,972.745319L297.493558,974.680676L285.687233,986.307018L289.437821,1003.738149L304.985545,1009.515155L316.696682,1009.495681L324.609192,999.823491L340.190482,1007.553609L348.062521,1003.700126L367.548532,1015.296320L367.451743,1024.938433L386.924534,1040.378149L392.870835,1034.598983L422.329712,1034.647004L426.292429,1030.813526L436.068767,1036.602224L437.953539,1046.213806L447.800817,1044.311625L459.521827,1053.940341L457.495746,1061.616294L467.322088,1063.550439L471.149060,1076.993900L486.896485,1077.015933L502.632047,1073.236645L508.495967,1077.092830L528.112053,1071.451806L539.814127,1081.094897L541.736266,1090.660205Z "/></g></svg>