<?xml version="1.0" encoding="utf-8"?><!DOCTYPE svg  PUBLIC '-//W3C//DTD SVG 1.1//EN'  'http://www.w3.org/Graphics/SVG/1.1/DTD/svg11.dtd'><svg enable_background="new 0 0 850 639" height="639px" pretty_print="False" style="stroke-linejoin: round; stroke:#000; fill: none;" version="1.1" viewBox="0 0 850 639" width="850px" xmlns="http://www.w3.org/2000/svg" xmlns:xlink="http://www.w3.org/1999/xlink"><defs><style type="text/css"><![CDATA[path { fill-rule: evenodd; }]]></style></defs><metadata><views><view h="639.192777655" padding="0" w="850"><proj id="laea" lat0="50.930002" lon0="13.5323642656"/><bbox h="18.47" w="24.6" x="987.03" y="990.71"/></view></views></metadata><g class="" id="roads"><path d="M111.921621,637.192778L119.581704,637.145243L121.399328,623.967152L129.824762,613.472979L130.467657,599.967312L142.759910,587.190224L141.894480,577.662034L152.591339,568.911750L165.706450,565.703895L165.575354,551.581959L172.256596,544.112225L195.919395,539.277686L223.843838,540.967856L246.289928,525.105789L257.333749,520.178962L290.284118,540.091539L297.379444,539.401885L311.354815,524.563548L310.316124,513.108638L316.698612,499.007077L322.912891,504.181765L338.394021,496.905133L356.943400,503.011289L371.344050,464.040605L381.067793,469.664635L392.458746,468.562436L391.664064,459.793478L402.638513,454.098727L405.523626,442.264132L419.121892,455.481967L431.807965,458.986471L443.195086,436.703641L450.443271,432.154268L449.098676,417.308626L452.510731,412.697453L480.470674,404.227937L490.655395,410.952374L545.194375,399.937736L544.043250,387.215829L559.818313,381.625558L560.033287,375.349333L580.185147,377.797854L592.776229,373.609744L629.160263,353.113053L641.984665,338.027277L648.159263,342.789334L673.597124,336.755220L678.611782,329.411773L677.059008,312.227912L659.625561,310.039817L639.572016,301.085588L639.714438,291.943612L647.197526,278.516536L672.300383,277.869826L671.695845,282.891782L683.089389,285.540650L693.397505,276.009176L716.999863,287.926008L732.811758,293.444522L733.501734,301.081693L725.703105,315.303600L725.905087,322.987435L746.445308,317.185244L741.608410,337.763561L736.653376,347.207903L759.507812,355.854096L764.944224,361.828821L790.258999,360.489197L793.901771,333.577033L822.565374,290.714275L824.205195,272.299019L827.499256,268.986510L837.125050,218.641384L848.989343,180.382455L847.727158,160.902357L832.036483,141.161027L829.825154,116.730753L813.271236,77.219699L798.950856,77.691914L765.744369,63.121939L764.720051,53.593998L756.586076,50.385412L759.720007,40.780349L752.842796,33.021051L752.556156,42.555106L745.193262,52.321818L722.602833,44.970435L706.958429,55.097048L693.154300,54.321801L681.905165,63.133264L675.769491,61.183506L664.543947,68.386220L662.600654,76.208451L647.744841,64.014534L631.010214,59.474597L612.143735,67.400469L604.458967,66.692156L596.277441,78.673462L593.458407,99.444987L588.212171,110.441525L568.910265,128.694973L569.375947,120.597483L553.348738,128.102405L529.591137,132.170873L471.202542,133.599941L463.602669,125.451292L450.847801,128.245822L449.600820,118.717672L430.881651,110.280317L417.034041,97.270810L386.279620,115.317450L382.745557,126.249890L368.610353,121.103722L357.940698,106.632721L364.693435,94.235043L367.114680,67.552137L361.200640,53.222487L353.352577,49.852021L352.200083,35.651571L341.322872,27.471552L333.233040,31.957043L324.234316,14.378140L317.734431,18.907668L302.185753,7.422368L303.577396,13.763085L289.179241,16.468783L273.627690,4.963859L254.453564,7.502450L247.843028,15.154384L236.914221,8.503459L227.372686,8.190144L222.199169,20.600807L201.419236,23.043140L173.911445,36.240243L159.742520,31.028413L157.843772,40.392538L137.206540,38.090768L122.467128,50.137576L111.326460,49.743452L96.588740,61.781019L97.562055,80.658057L91.144354,82.003178L90.020180,116.485428L92.496045,138.524685L87.319188,150.880482L82.540107,150.710634L88.464654,165.022428L88.119322,175.974901L94.339527,180.891543L88.675649,208.883651L98.234905,209.218186L94.511578,226.307666L105.519352,231.386659L102.040539,240.654944L119.366067,247.518640L130.650208,243.227088L150.947252,256.488747L165.407229,252.344998L176.290571,260.599294L181.802459,287.443191L204.020854,288.339277L215.583043,321.745238L185.199374,329.871063L180.550707,326.539287L164.368461,336.791896L152.722267,355.037626L152.950901,347.237159L122.375831,361.614464L119.271613,358.395323L104.680463,365.706350L107.626161,375.150380L117.100313,380.122039L102.511100,385.908285L100.606087,395.234381L113.392384,400.225187L106.785409,404.750845L122.585517,419.138449L110.371384,437.910680L97.278833,440.949343L94.176005,437.738839L76.054402,445.382457L78.312207,465.957374L57.488348,464.105103L57.119373,472.025088L44.118652,474.910827L41.307024,467.005225L45.283453,454.658279L37.180245,449.482275L39.161558,440.034895L30.962420,444.646868L15.870541,460.217853L17.168878,468.136454L4.083589,474.268376L13.018324,490.269450L16.379094,487.196960L18.347043,514.141302L5.442350,518.642160L14.575014,526.198781L20.155907,541.106966L24.874905,541.207074L25.287039,560.292952L35.931741,563.581077L40.147585,569.957087L82.376354,575.785164L84.168503,594.219037L99.932851,595.952910L94.661074,605.404563L106.414834,621.273387L111.921621,637.192778Z "/></g></svg>