<?xml version="1.0" encoding="utf-8"?><!DOCTYPE svg  PUBLIC '-//W3C//DTD SVG 1.1//EN'  'http://www.w3.org/Graphics/SVG/1.1/DTD/svg11.dtd'><svg enable_background="new 0 0 850 890" height="890px" pretty_print="False" style="stroke-linejoin: round; stroke:#000; fill: none;" version="1.1" viewBox="0 0 850 890" width="850px" xmlns="http://www.w3.org/2000/svg" xmlns:xlink="http://www.w3.org/1999/xlink"><defs><style type="text/css"><![CDATA[path { fill-rule: evenodd; }]]></style></defs><metadata><views><view h="890.491783738" padding="0" w="850"><proj id="laea" lat0="52.4584815" lon0="14.158785344"/><bbox h="27.08" w="25.88" x="978.63" y="986.44"/></view></views></metadata><g class="" id="roads"><path d="M605.757639,888.491784L610.469125,884.128202L658.864393,873.850197L658.355730,881.546819L676.860760,864.345084L681.939408,853.930278L684.789138,834.200038L692.667320,822.872404L699.969950,823.608190L717.976770,816.223398L733.854933,820.675804L747.884285,832.391551L749.795845,824.968493L760.530041,818.209238L766.349419,820.112726L777.119062,811.823636L790.240862,812.671622L805.201121,803.166837L826.625702,810.338442L835.406976,792.017780L839.234491,797.990164L842.271651,754.154142L834.381676,746.786104L824.596849,716.432647L811.016762,706.316357L813.469256,691.896618L835.065644,659.136159L836.310938,625.884493L841.909144,619.752166L837.662804,589.603966L833.644080,589.666274L829.077347,568.583367L833.486644,557.938770L832.045702,524.719631L817.444049,519.645716L803.854171,509.751759L794.712868,466.611573L798.111389,451.478836L818.159025,427.870691L810.672488,416.010885L820.017477,396.916556L805.057740,379.932987L775.095575,360.594320L766.476593,352.503783L753.865934,331.362423L746.569813,324.354380L725.488415,311.896439L715.232189,298.166651L707.995727,298.796260L694.469741,282.790372L700.997365,274.220830L698.176045,246.643002L712.622923,229.817861L728.922720,221.999693L745.833454,205.927498L752.129371,194.419935L756.949283,164.750952L752.262952,152.370060L771.536491,121.450477L763.846055,91.852061L756.027341,97.634350L740.674601,98.838248L725.815879,120.878731L693.621132,119.837186L694.113343,105.858208L713.575827,87.598730L722.336572,64.512266L718.479570,48.888695L707.528917,54.473755L649.722012,50.764851L633.974386,32.262026L627.193349,16.976103L619.675670,16.720694L611.476100,2.563544L610.568150,17.884979L615.923298,31.631956L593.425910,30.837296L573.100005,51.135534L572.645043,60.074883L554.564123,63.984213L552.417304,78.921806L548.019675,77.255460L548.718842,96.801379L537.751310,108.440837L531.777130,108.207118L514.571633,127.088630L509.158667,113.338694L483.450463,119.831698L470.843164,135.945213L466.785894,125.250632L450.235380,127.607588L446.823508,138.006078L434.630143,143.540421L416.029303,159.354924L411.851997,151.653851L415.143954,144.261213L394.038009,147.915168L392.362231,152.364781L364.077528,148.180372L360.212929,132.944137L345.262449,132.313396L341.278477,120.081109L321.775146,120.748375L312.928956,117.351703L284.502530,116.107975L276.228639,99.140535L243.619976,90.132246L236.651397,77.730724L227.666353,77.323067L221.413520,83.084849L218.808491,73.899065L193.459801,69.704819L186.282132,96.574828L167.752205,107.797078L154.304211,105.650738L154.108451,110.172471L131.303021,115.121836L138.358457,126.033288L124.827741,125.381613L114.101074,129.396185L107.036928,118.476139L90.477469,117.661299L79.406159,129.199125L73.377907,128.901019L65.768650,164.760204L49.443708,157.899089L31.337815,156.975230L32.383500,167.601258L0.805467,162.931346L0.477801,170.468916L13.348035,187.756944L26.934288,188.459400L45.371199,181.847744L56.904576,194.505958L69.029601,193.593815L71.842282,198.262272L91.286732,202.235093L105.336506,225.539966L113.059779,221.389542L121.882294,226.333068L124.556813,233.997109L139.193918,243.733323L132.845741,250.966554L151.925483,262.405028L177.275781,268.091638L206.016510,264.873142L205.360252,279.902183L225.215950,273.247896L232.529550,278.090373L229.800678,306.562774L224.843467,316.874429L228.961998,326.082917L222.497564,336.323404L231.067440,347.226006L230.037707,371.235186L214.931424,372.070696L215.595180,391.637567L207.357599,407.802513L217.187095,424.757035L229.747544,413.295294L238.139733,428.681648L248.744436,427.641001L253.070668,432.331873L246.539822,444.061781L245.587673,466.541840L240.497053,479.830506L244.698580,487.516753L231.493377,513.951161L231.047399,524.434220L239.779304,532.313086L226.821062,552.745838L227.691534,567.775871L234.603378,583.073074L246.424627,589.589830L246.236982,594.076099L265.167029,611.386391L278.441473,619.454245L287.500753,619.843685L300.710769,629.399422L300.523782,633.887108L320.208314,633.221773L341.637192,626.611481L369.638050,644.237366L377.300058,641.545991L378.268761,655.077227L405.481078,654.648918L407.965209,668.230410L424.087982,680.843795L436.096076,682.793969L448.389992,677.256667L452.566258,686.405246L446.534960,686.179113L456.747427,734.506037L452.915394,755.340656L426.599539,770.822292L435.012979,787.614702L442.743149,783.416204L453.020237,791.285680L453.999862,804.799817L461.435756,808.070175L466.942666,821.746541L464.421627,847.101551L457.898235,858.835566L472.457607,872.859806L481.327690,877.696321L484.778004,867.329061L514.173468,850.420923L527.236570,862.906694L544.970079,871.084292L546.078287,880.155514L558.231295,877.602695L565.392584,885.414107L605.757639,888.491784Z M535.619533,356.256951L536.835651,363.812533L547.018952,371.657799L543.314912,391.048045L546.360165,389.650883L562.138201,408.183827L572.316290,416.022714L568.472733,439.916688L576.099823,435.659898L596.561748,448.323112L604.015393,448.556614L594.384090,467.769441L575.564502,492.678066L564.407139,469.803994L537.476954,468.902850L533.315870,459.759325L513.177857,477.080965L513.343899,472.584939L501.686405,463.173037L493.964739,468.908379L491.247761,461.308204L485.022957,467.092929L471.806642,459.108101L450.278484,471.828667L438.730207,459.389483L448.026462,452.230382L445.487959,440.123371L456.507416,427.020113L446.355655,417.632756L454.316741,405.917533L453.221011,395.362663L470.163481,383.974138L473.504443,375.087562L507.873969,377.825685L515.686888,369.089472L535.619533,356.256951Z "/></g></svg>